# xmcd CD database file
#
# Track frame offsets:
#	150
#	14225
#	51745
#	74750
#	119300
#	136215
#	142345
#	206925
#	214120
#	237145
#	256790
#	271255
#
# Disc length: 3894 seconds
#
# Revision: 8
# Processed by: cddbd v1.5.2PL0 Copyright (c) Steve Scherf et al.
# Submitted via: CDex 1.70beta2
#
DISCID=cc0f340c
DTITLE=Caravan - If I Could Do It All Over Again, I'd Do It All Over You
DYEAR=1970
DGENRE=Rock
TTITLE0=If I Could Do It All Over Again, I'd Do It All Over You
TTITLE1=And I Wish I Were Stoned - Don't Worry
TTITLE2=As I Feel I Die
TTITLE3=With An Ear To The Ground You Can Make It - Martinian - Only Cox - Reprise
TTITLE4=Hello Hello
TTITLE5=Asforteri
TTITLE6=Can't Be Long Now - Françoise - For Richard - Warlock
TTITLE7=Limits
TTITLE8=A Day In The Life of Maurice Haylett
TTITLE9=Why? (And I Wish I Were Stoned) [demo version]
TTITLE10=Clipping The 8th (Hello Hello) [demo version]
TTITLE11=As I Feel I Die [demo version]
EXTD=YEAR: 1970
EXTT0=
EXTT1=
EXTT2=
EXTT3=
EXTT4=
EXTT5=
EXTT6=
EXTT7=
EXTT8=
EXTT9=
EXTT10=
EXTT11=
PLAYORDER=
